<svg xmlns="http://www.w3.org/2000/svg" xmlns:xlink="http://www.w3.org/1999/xlink" version="1.1" x="0px" y="0px" viewBox="0 0 32 32" enable-background="new 0 0 32 32" xml:space="preserve"><g display="none"><rect x="-331.333" y="-186.672" display="inline" fill="#000000" width="473.333" height="236"></rect></g><g display="none"><g display="inline"><g><polygon points="16.01,21.103 4.433,1.05 27.588,1.05    "></polygon></g><g><path fill="#000000" d="M30,2v28H2V2H30 M32,0H0v32h32V0L32,0z"></path></g></g></g><g><g><path d="M0,32h32V0H0V32z M2,2h2.981L16.01,21.103L27.04,2H30v28H2V2z"></path></g></g><g display="none"><g display="inline"><polyline fill="#000000" stroke="#1A1718" stroke-miterlimit="10" points="27.588,0.25 16.01,20.304 4.433,0.25   "></polyline><g><path fill="#000000" d="M31,1v30H1V1H31 M32,0H0v32h32V0L32,0z"></path></g></g></g><g display="none"><g display="inline"><rect x="0" y="0" fill="#000000" width="32" height="32"></rect></g><polyline display="inline" fill="#000000" stroke="#000000" stroke-miterlimit="10" points="27.588,0.25 16.01,20.304 4.433,0.25     "></polyline><g display="inline"><g><path fill="#000000" d="M31,1v30H1V1H31 M32,0H0v32h32V0L32,0z"></path></g></g></g></svg>