<svg xmlns="http://www.w3.org/2000/svg" xmlns:xlink="http://www.w3.org/1999/xlink" version="1.1" x="0px" y="0px" viewBox="0 0 32 32" enable-background="new 0 0 32 32" xml:space="preserve"><g display="none"><rect x="-289.302" y="-60.667" display="inline" fill="#000000" width="473.333" height="236"></rect></g><g display="none"><g display="inline"><g><circle fill="#000000" cx="16" cy="16" r="16"></circle></g></g><g display="inline"><g><rect x="8.668" y="8.668" transform="matrix(0.7071 -0.7071 0.7071 0.7071 -6.6274 16)" fill="#000000" width="14.664" height="14.664"></rect></g><g><rect x="12.552" y="12.552" transform="matrix(0.7071 -0.7071 0.7071 0.7071 -6.6274 16)" fill="#000000" width="6.896" height="6.896"></rect></g></g></g><g><g><g><path d="M16,1c8.271,0,15,6.729,15,15s-6.729,15-15,15S1,24.271,1,16S7.729,1,16,1 M16,0C7.163,0,0,7.163,0,16s7.163,16,16,16     s16-7.163,16-16S24.837,0,16,0L16,0z"></path></g></g><g><g><path d="M16,7.045L24.955,16L16,24.955L7.045,16L16,7.045 M16,5.631L5.631,16L16,26.369L26.369,16L16,5.631L16,5.631z"></path></g><g><path d="M16,12.538L19.462,16L16,19.462L12.538,16L16,12.538 M16,11.124L11.124,16L16,20.876L20.876,16L16,11.124L16,11.124z"></path></g></g></g><g display="none"><g display="inline"><path fill="#000000" d="M16,31.5C7.453,31.5,0.5,24.547,0.5,16S7.453,0.5,16,0.5S31.5,7.453,31.5,16S24.547,31.5,16,31.5z"></path><g><path d="M16,1c8.271,0,15,6.729,15,15s-6.729,15-15,15S1,24.271,1,16S7.729,1,16,1 M16,0C7.163,0,0,7.163,0,16s7.163,16,16,16     s16-7.163,16-16S24.837,0,16,0L16,0z"></path></g></g><g display="inline"><rect x="9.168" y="9.168" transform="matrix(0.7071 -0.7071 0.7071 0.7071 -6.6274 16)" fill="#000000" width="13.664" height="13.664"></rect><g><path d="M16,7.045L24.955,16L16,24.955L7.045,16L16,7.045 M16,5.631L5.631,16L16,26.369L26.369,16L16,5.631L16,5.631z"></path></g></g><g display="inline"><rect x="13.052" y="13.052" transform="matrix(0.7071 -0.7071 0.7071 0.7071 -6.6274 16)" fill="#000000" width="5.896" height="5.896"></rect><g><path fill="#000000" d="M16,12.538L19.462,16L16,19.462L12.538,16L16,12.538 M16,11.124L11.124,16L16,20.876L20.876,16L16,11.124     L16,11.124z"></path></g></g></g><g display="none"><circle display="inline" fill="#000000" cx="16" cy="16" r="16"></circle><rect x="8.668" y="8.668" transform="matrix(0.7071 -0.7071 0.7071 0.7071 -6.6274 16)" display="inline" fill="#000000" width="14.664" height="14.664"></rect><rect x="12.552" y="12.552" transform="matrix(0.7071 -0.7071 0.7071 0.7071 -6.6274 16)" display="inline" fill="#000000" width="6.896" height="6.896"></rect></g></svg>