<svg xmlns="http://www.w3.org/2000/svg" xmlns:xlink="http://www.w3.org/1999/xlink" version="1.1" x="0px" y="0px" viewBox="0 0 32 32" enable-background="new 0 0 32 32" xml:space="preserve"><g display="none"><rect x="-69.333" y="-186.661" display="inline" fill="#000000" width="473.333" height="236"></rect></g><g display="none"><g display="inline"><g><polygon points="29.17,9.123 2.83,18.247 2.83,0    "></polygon></g><g><polygon fill="#000000" points="2.83,22.877 29.17,13.753 29.17,32    "></polygon></g></g></g><g><g><polygon points="2.83,18.247 29.17,9.123 2.83,0   "></polygon><polygon points="29.17,32 29.17,13.753 2.83,22.877   "></polygon></g></g><g display="none"><g display="inline"><path fill="#000000" d="M3.83,1.405l22.285,7.719L3.83,16.842V1.405 M2.83,0v18.247L29.17,9.123L2.83,0L2.83,0z"></path></g><g display="inline"><path fill="#000000" d="M28.17,15.158v15.437L5.885,22.877L28.17,15.158 M29.17,13.753L2.83,22.877L29.17,32V13.753L29.17,13.753z    "></path></g></g><g display="none"><g display="inline"><polygon fill="#000000" points="3.33,0.702 27.643,9.123 3.33,17.544   "></polygon><path fill="#000000" d="M3.83,1.405l22.285,7.719L3.83,16.842V1.405 M2.83,0v18.247L29.17,9.123L2.83,0L2.83,0z"></path></g><g display="inline"><polygon fill="#000000" points="4.357,22.876 28.67,14.455 28.67,31.298   "></polygon><path fill="#000000" d="M28.17,15.158v15.437L5.885,22.877L28.17,15.158 M29.17,13.753L2.83,22.877L29.17,32V13.753L29.17,13.753z    "></path></g></g></svg>