<svg xmlns="http://www.w3.org/2000/svg" xmlns:xlink="http://www.w3.org/1999/xlink" version="1.1" x="0px" y="0px" viewBox="0 0 32 32" enable-background="new 0 0 32 32" xml:space="preserve"><g display="none"><rect x="-331.323" y="-144.635" display="inline" fill="#000000" width="473.333" height="236"></rect></g><g display="none"><g display="inline"><g><polygon fill="#000000" points="16,19.586 23.496,6.632 8.504,6.632    "></polygon></g></g><g display="inline"><g><polygon points="7.496,12.414 14.992,25.368 0,25.368    "></polygon></g></g><g display="inline"><g><polygon fill="#000000" points="24.504,12.414 32,25.368 17.008,25.368    "></polygon></g></g></g><g><g><polygon points="16,19.586 23.496,6.632 8.504,6.632   "></polygon><polygon points="7.496,12.414 0,25.368 14.992,25.368   "></polygon><polygon points="24.504,12.414 17.008,25.368 32,25.368   "></polygon></g></g><g display="none"><g display="inline"><path fill="#000000" d="M21.762,7.632L16,17.59l-5.762-9.958H21.762 M23.496,6.632H8.504L16,19.586L23.496,6.632L23.496,6.632z"></path></g><g display="inline"><path fill="#000000" d="M7.496,14.41l5.762,9.958H1.734L7.496,14.41 M7.496,12.414L0,25.368h14.992L7.496,12.414L7.496,12.414z"></path></g><g display="inline"><path fill="#000000" d="M24.504,14.41l5.762,9.958H18.742L24.504,14.41 M24.504,12.414l-7.496,12.954H32L24.504,12.414    L24.504,12.414z"></path></g></g><g display="none"><g display="inline"><polygon fill="#000000" points="9.372,7.132 22.629,7.132 16,18.589   "></polygon><g><path d="M21.762,7.632L16,17.59l-5.762-9.958H21.762 M23.496,6.632H8.504L16,19.586L23.496,6.632L23.496,6.632z"></path></g></g><g display="inline"><polygon fill="#000000" points="0.867,24.868 7.496,13.411 14.125,24.868   "></polygon><path fill="#000000" d="M7.496,14.41l5.762,9.958H1.734L7.496,14.41 M7.496,12.414L0,25.368h14.992L7.496,12.414L7.496,12.414z"></path></g><g display="inline"><polygon fill="#000000" points="17.876,24.868 24.505,13.411 31.132,24.868   "></polygon><path fill="#000000" d="M24.504,14.41l5.762,9.958H18.742L24.504,14.41 M24.504,12.414l-7.496,12.954H32L24.504,12.414    L24.504,12.414z"></path></g></g></svg>