<svg xmlns="http://www.w3.org/2000/svg" xmlns:xlink="http://www.w3.org/1999/xlink" version="1.1" x="0px" y="0px" viewBox="0 0 32 32" enable-background="new 0 0 32 32" xml:space="preserve"><g display="none"><rect x="-373.333" y="-144.646" display="inline" fill="#000000" width="473.333" height="236"></rect></g><g display="none"><circle display="inline" fill="#000000" cx="25.044" cy="25.044" r="6.956"></circle><g display="inline"><circle cx="6.956" cy="25.044" r="6.956"></circle><rect x="0.172" y="2.201" fill="#000000" width="13.568" height="13.568"></rect></g><g display="inline"><rect x="18.432" y="2.201" width="13.568" height="13.568"></rect></g></g><g display="none"><g display="inline"><path fill="#000000" d="M25.044,19.087c3.284,0,5.956,2.672,5.956,5.956S28.328,31,25.044,31s-5.956-2.672-5.956-5.956    S21.759,19.087,25.044,19.087 M25.044,18.087c-3.842,0-6.956,3.115-6.956,6.956c0,3.842,3.115,6.956,6.956,6.956    S32,28.885,32,25.044C32,21.202,28.885,18.087,25.044,18.087L25.044,18.087z"></path></g><g display="inline"><path fill="#000000" d="M6.956,19.087c3.284,0,5.956,2.672,5.956,5.956S10.241,31,6.956,31S1,28.328,1,25.044    S3.672,19.087,6.956,19.087 M6.956,18.087C3.115,18.087,0,21.202,0,25.044C0,28.885,3.115,32,6.956,32s6.956-3.115,6.956-6.956    C13.913,21.202,10.798,18.087,6.956,18.087L6.956,18.087z"></path></g><g display="inline"><path fill="#000000" d="M12.741,3.201v11.568H1.172V3.201H12.741 M13.741,2.201H0.172v13.568h13.568V2.201L13.741,2.201z"></path></g><g display="inline"><path fill="#000000" d="M31,3.201v11.568H19.432V3.201H31 M32,2.201H18.432v13.568H32V2.201L32,2.201z"></path></g></g><g display="none"><g display="inline"><circle fill="#000000" cx="16" cy="16" r="16"></circle></g><g display="inline"><g><circle fill="#000000" cx="25.044" cy="25.044" r="6.457"></circle></g><g><path d="M25.044,19.087c3.284,0,5.956,2.672,5.956,5.956S28.328,31,25.044,31s-5.956-2.672-5.956-5.956     S21.759,19.087,25.044,19.087 M25.044,18.087c-3.842,0-6.956,3.115-6.956,6.956c0,3.842,3.115,6.956,6.956,6.956     S32,28.885,32,25.044C32,21.202,28.885,18.087,25.044,18.087L25.044,18.087z"></path></g></g><g display="inline"><g><circle fill="#000000" cx="6.956" cy="25.044" r="6.457"></circle></g><g><path d="M6.956,19.087c3.284,0,5.956,2.672,5.956,5.956S10.241,31,6.956,31S1,28.328,1,25.044S3.672,19.087,6.956,19.087      M6.956,18.087C3.115,18.087,0,21.202,0,25.044C0,28.885,3.115,32,6.956,32s6.956-3.115,6.956-6.956     C13.913,21.202,10.798,18.087,6.956,18.087L6.956,18.087z"></path></g></g><g display="inline"><g><rect x="0.672" y="2.701" fill="#000000" width="12.568" height="12.568"></rect></g><g><path d="M12.741,3.201v11.568H1.172V3.201H12.741 M13.741,2.201H0.172v13.568h13.568V2.201L13.741,2.201z"></path></g></g><g display="inline"><g><rect x="18.932" y="2.701" fill="#000000" width="12.568" height="12.568"></rect></g><g><g><path d="M31,3.201v11.568H19.432V3.201H31 M32,2.201H18.432v13.568H32V2.201L32,2.201z"></path></g></g></g></g><g><g><circle cx="25.044" cy="25.043" r="6.956"></circle><circle cx="6.956" cy="25.043" r="6.956"></circle><rect x="0.172" y="2.201" width="13.568" height="13.568"></rect><rect x="18.432" y="2.201" width="13.568" height="13.568"></rect></g></g></svg>