<svg width="512" height="512" viewBox="0 0 512 512" fill="none" xmlns="http://www.w3.org/2000/svg">
<rect width="512" height="512" rx="256" fill="black"/>
<path d="M60.0995 418.78C59.6929 417.854 60.6416 416.408 60.9804 415.414C65.1138 406.06 71.3252 398.085 79.5243 391.917C111.214 367.359 140.193 339.75 171.272 314.446C179.449 308.459 185.299 301.704 181.753 291.131C178.5 282.161 175.722 271.61 168.878 264.742C166.529 262.528 163.751 260.879 160.724 259.727C149.86 255.57 135.608 257.49 122.485 257.761C116.567 257.513 100.982 258.823 101.547 251.593C111.756 231.892 135.63 223.013 157.065 222.652C177.439 222.087 192.459 214.473 205.921 201.957C213.442 194.931 220.038 186.729 226.068 178.257C228.192 175.501 228.372 171.728 223.787 171.502C190.133 173.58 156.342 175.862 122.62 175.704C119.097 175.749 115.076 176.179 111.778 175.343C105.477 173.558 110.039 168.316 114.353 166.757C154.332 154.67 198.332 167.187 239.304 161.177C242.67 159.957 245.335 157.314 247.707 154.67C254.935 146.469 262.162 138.336 269.39 130.157C274.359 124.441 279.532 118.906 284.32 113.032C285.879 110.953 287.415 108.558 287.008 105.892C286.647 102.255 281.813 99.6341 281.316 96.5841C281.587 89.6707 291.277 94.7089 295.139 95.703C348.399 112.851 381.602 152.479 394.657 206.475C397.571 217.93 407.509 215.535 416.341 215.739C421.604 216.055 427.115 216.62 431.858 213.818C434.772 212.282 437.708 209.684 441.141 209.955C442.768 210.09 444.281 210.881 445.614 211.785C448.731 213.886 452.706 216.642 451.893 219.421C450.809 222.584 445.907 225.996 442.542 227.735C437.595 229.814 432.875 224.414 427.883 223.623C356.508 222.674 284.727 222.019 213.352 224.956C209.467 225.295 204.408 222.765 207.028 218.721C210.303 214.925 217.847 217.614 221.257 213.366C223.561 210.791 225.346 206.882 228.711 205.527C235.871 202.996 240.14 209.932 245.2 200.172C249.197 193.326 247.571 184.38 248.294 176.992C248.475 173.354 251.072 168.452 253.986 171.773C255.047 173.445 254.912 175.862 254.889 177.85C254.618 184.154 256.561 190.548 254.98 197.009C252.698 204.917 246.69 212.237 239.327 215.196C235.894 216.687 241.066 216.19 242.444 216.303C287.934 215.693 333.447 216.416 378.959 215.151C388.017 214.27 385.6 204.962 383.68 198.794C371.574 158.985 347.27 129.547 309.934 110.411C306.478 108.671 302.254 106.886 298.55 107.519C294.507 108.129 291.051 111.744 288.318 114.794C260.197 146.492 232.077 178.009 203.843 209.571C200.974 212.734 197.202 217.23 197.88 221.545C198.422 225.499 201.9 228.955 204.679 231.87C240.434 268.447 276.799 304.302 312.396 341.038C322.989 353.058 329.765 351.95 341.036 341.332C369.157 316.276 384.832 284.985 388.649 247.64C389.349 243.166 388.785 238.354 389.688 233.926C390.863 229.023 395.99 229.791 396.464 234.626C399.468 287.561 367.847 342.846 319.827 365.755C313.299 365.551 317.229 359.067 316.981 354.842C317.026 353.058 315.422 350.301 314.406 349.194C297.262 331.007 279.599 313.159 262.32 295.039C259.316 291.921 254.37 286.951 250.191 290.363C243.528 296.576 242.286 311.103 240.953 320.321C240.637 325.878 239.191 330.216 240.637 335.028C245.177 345.24 273.795 358.593 287.098 367.946C293.039 371.968 300.831 377.119 302.254 384.303C304.355 392.324 300.086 400.661 292.497 404.095C288.679 405.902 283.914 406.535 279.803 407.258C258.368 411.166 237.317 416.498 215.949 420C213.104 419.955 211.161 418.102 210.98 416.34C211.138 411.889 217.011 410.714 224.871 408.681C237.43 404.659 291.435 402.988 294.349 390.381C296.291 371.764 236.549 359.655 225.594 341.919C217.124 325.314 238.22 302.314 243.573 284.308C245.787 277.959 240.795 272.785 236.481 268.741C224.826 257.49 213.487 246.058 201.946 234.649C197.451 230.108 191.94 226.47 185.254 226.899C182.408 226.99 179.517 227.6 176.693 228.119C158.353 231.734 137.392 229.927 122.259 241.178C116.025 245.674 120.158 247.368 127.092 247.301C148.392 246.555 169.872 238.738 181.956 262.393C188.551 274.977 193.588 291.876 190.878 303.399C190.246 305.274 189.071 306.991 187.558 308.73C149.837 348.381 103.737 386.066 60.1673 418.848L60.0769 418.78H60.0995Z" fill="white"/>
<path d="M60.0995 418.78C59.6929 417.854 60.6416 416.408 60.9804 415.414C65.1138 406.06 71.3252 398.085 79.5243 391.917C111.214 367.359 140.193 339.75 171.272 314.446C179.449 308.459 185.299 301.704 181.753 291.131C178.5 282.161 175.722 271.61 168.878 264.742C166.529 262.528 163.751 260.879 160.724 259.727C149.86 255.57 135.608 257.49 122.485 257.761C116.567 257.513 100.982 258.823 101.547 251.593C111.756 231.892 135.63 223.013 157.065 222.652C177.439 222.087 192.459 214.473 205.921 201.957C213.442 194.931 220.038 186.729 226.068 178.257C228.192 175.501 228.372 171.728 223.787 171.502C190.133 173.58 156.342 175.862 122.62 175.704C119.097 175.749 115.076 176.179 111.778 175.343C105.477 173.558 110.039 168.316 114.353 166.757C154.332 154.67 198.332 167.187 239.304 161.177C242.67 159.957 245.335 157.314 247.707 154.67C254.935 146.469 262.162 138.336 269.39 130.157C274.359 124.441 279.532 118.906 284.32 113.032C285.879 110.953 287.415 108.558 287.008 105.892C286.647 102.255 281.813 99.6341 281.316 96.5841C281.587 89.6707 291.277 94.7089 295.139 95.703C348.399 112.851 381.602 152.479 394.657 206.475C397.571 217.93 407.509 215.535 416.341 215.739C421.604 216.055 427.115 216.62 431.858 213.818C434.772 212.282 437.708 209.684 441.141 209.955C442.768 210.09 444.281 210.881 445.614 211.785C448.731 213.886 452.706 216.642 451.893 219.421C450.809 222.584 445.907 225.996 442.542 227.735C437.595 229.814 432.875 224.414 427.883 223.623C356.508 222.674 284.727 222.019 213.352 224.956C209.467 225.295 204.408 222.765 207.028 218.721C210.303 214.925 217.847 217.614 221.257 213.366C223.561 210.791 225.346 206.882 228.711 205.527C235.871 202.996 240.14 209.932 245.2 200.172C249.197 193.326 247.571 184.38 248.294 176.992C248.475 173.354 251.072 168.452 253.986 171.773C255.047 173.445 254.912 175.862 254.889 177.85C254.618 184.154 256.561 190.548 254.98 197.009C252.698 204.917 246.69 212.237 239.327 215.196C235.894 216.687 241.066 216.19 242.444 216.303C287.934 215.693 333.447 216.416 378.959 215.151C388.017 214.27 385.6 204.962 383.68 198.794C371.574 158.985 347.27 129.547 309.934 110.411C306.478 108.671 302.254 106.886 298.55 107.519C294.507 108.129 291.051 111.744 288.318 114.794C260.197 146.492 232.077 178.009 203.843 209.571C200.974 212.734 197.202 217.23 197.88 221.545C198.422 225.499 201.9 228.955 204.679 231.87C240.434 268.447 276.799 304.302 312.396 341.038C322.989 353.058 329.765 351.95 341.036 341.332C369.157 316.276 384.832 284.985 388.649 247.64C389.349 243.166 388.785 238.354 389.688 233.926C390.863 229.023 395.99 229.791 396.464 234.626C399.468 287.561 367.847 342.846 319.827 365.755C313.299 365.551 317.229 359.067 316.981 354.842C317.026 353.058 315.422 350.301 314.406 349.194C297.262 331.007 279.599 313.159 262.32 295.039C259.316 291.921 254.37 286.951 250.191 290.363C243.528 296.576 242.286 311.103 240.953 320.321C240.637 325.878 239.191 330.216 240.637 335.028C245.177 345.24 273.795 358.593 287.098 367.946C293.039 371.968 300.831 377.119 302.254 384.303C304.355 392.324 300.086 400.661 292.497 404.095C288.679 405.902 283.914 406.535 279.803 407.258C258.368 411.166 237.317 416.498 215.949 420C213.104 419.955 211.161 418.102 210.98 416.34C211.138 411.889 217.011 410.714 224.871 408.681C237.43 404.659 291.435 402.988 294.349 390.381C296.291 371.764 236.549 359.655 225.594 341.919C217.124 325.314 238.22 302.314 243.573 284.308C245.787 277.959 240.795 272.785 236.481 268.741C224.826 257.49 213.487 246.058 201.946 234.649C197.451 230.108 191.94 226.47 185.254 226.899C182.408 226.99 179.517 227.6 176.693 228.119C158.353 231.734 137.392 229.927 122.259 241.178C116.025 245.674 120.158 247.368 127.092 247.301C148.392 246.555 169.872 238.738 181.956 262.393C188.551 274.977 193.588 291.876 190.878 303.399C190.246 305.274 189.071 306.991 187.558 308.73C149.837 348.381 103.737 386.066 60.1673 418.848L60.0769 418.78H60.0995Z" fill="url(#paint0_linear_2384_1251)"/>
<defs>
<linearGradient id="paint0_linear_2384_1251" x1="352.594" y1="2192.08" x2="59.212" y2="2190.86" gradientUnits="userSpaceOnUse">
<stop stop-color="#E5B15A"/>
<stop offset="0.115" stop-color="#FFD574"/>
<stop offset="0.215" stop-color="#8E3702"/>
<stop offset="0.26" stop-color="#FFD574"/>
<stop offset="0.53" stop-color="#E2AC57"/>
<stop offset="0.56" stop-color="#8E3702"/>
<stop offset="0.64" stop-color="#FFD574"/>
<stop offset="0.857684" stop-color="#BF7B33"/>
<stop offset="0.931898" stop-color="#8E3702"/>
<stop offset="1" stop-color="#FFD06A"/>
</linearGradient>
</defs>
</svg>
